HIERARCHY
ROOT hip
{
	OFFSET 0.000000 0.000000 0.000000 
	CHANNELS 6 Xposition Yposition Zposition Xrotation Zrotation Yrotation
	JOINT abdomen
	{
		OFFSET 0.000000 0.000000 0.000000 
		CHANNELS 3 Xrotation Zrotation Yrotation
		JOINT chest
		{
			OFFSET 0.000000 5.018152 -1.882228 
			CHANNELS 3 Xrotation Zrotation Yrotation
			JOINT neckDummy
			{
				OFFSET 0.000000 8.316447 0.784897 
				CHANNELS 3 Xrotation Yrotation Zrotation
				JOINT neck
				{
					OFFSET 0.000000 2.280413 -0.000000 
					CHANNELS 3 Xrotation Zrotation Yrotation
					JOINT head
					{
						OFFSET 0.000000 3.496879 0.000000 
						CHANNELS 3 Xrotation Zrotation Yrotation
						JOINT figureHair
						{
							OFFSET 0.000000 4.699570 0.000000 
							CHANNELS 3 Zrotation Yrotation Xrotation
							End Site
							{
								OFFSET 0.000000 -6.419331 0.000000 
							}
						}
					}
				}
			}
			JOINT lCollar
			{
				OFFSET 0.599237 8.316447 0.784897 
				CHANNELS 3 Yrotation Zrotation Xrotation
				JOINT lShldr
				{
					OFFSET 6.421198 0.010146 -0.332128 
					CHANNELS 3 Zrotation Yrotation Xrotation
					JOINT lForeArm
					{
						OFFSET 10.552783 0.025574 0.125508 
						CHANNELS 3 Yrotation Zrotation Xrotation
						JOINT lHand
						{
							OFFSET 11.035963 0.319619 0.041520 
							CHANNELS 3 Zrotation Yrotation Xrotation
							End Site
							{
								OFFSET 10.353753 0.000000 0.000000 
							}
						}
					}
				}
			}
			JOINT rCollar
			{
				OFFSET -0.599237 8.316447 0.784897 
				CHANNELS 3 Yrotation Zrotation Xrotation
				JOINT rShldr
				{
					OFFSET -6.421198 0.010146 -0.332128 
					CHANNELS 3 Zrotation Yrotation Xrotation
					JOINT rForeArm
					{
						OFFSET -10.552783 0.025574 0.125508 
						CHANNELS 3 Yrotation Zrotation Xrotation
						JOINT rHand
						{
							OFFSET -11.035963 0.319619 0.041520 
							CHANNELS 3 Zrotation Yrotation Xrotation
							End Site
							{
								OFFSET -10.353753 0.000000 0.000000 
							}
						}
					}
				}
			}
		}
	}
	JOINT lThigh
	{
		OFFSET 4.500466 -6.400484 -1.832696 
		CHANNELS 3 Xrotation Zrotation Yrotation
		JOINT lShin
		{
			OFFSET -1.359117 -18.918690 1.179887 
			CHANNELS 3 Xrotation Zrotation Yrotation
			JOINT lFoot
			{
				OFFSET -0.652380 -17.215185 -0.312137 
				CHANNELS 3 Xrotation Yrotation Zrotation
				End Site
				{
					OFFSET 0.000000 0.000000 10.353752 
				}
			}
		}
	}
	JOINT rThigh
	{
		OFFSET -4.500466 -6.400484 -1.832696 
		CHANNELS 3 Xrotation Zrotation Yrotation
		JOINT rShin
		{
			OFFSET 1.359117 -18.918690 1.179887 
			CHANNELS 3 Xrotation Zrotation Yrotation
			JOINT rFoot
			{
				OFFSET 0.652380 -17.215185 -0.312137 
				CHANNELS 3 Xrotation Yrotation Zrotation
				End Site
				{
					OFFSET 0.000000 0.000000 10.353752 
				}
			}
		}
	}
}
MOTION
Frames: 7
Frame Time: 0.066667
0.000000 38.100002 0.000000 0.000000 0.000000 0.000000 -2.569706 -0.587081 0.746072 4.264240 -0.920307 6.794440 0.000000 0.000000 0.000000 -0.065579 0.873253 0.332926 4.152214 1.027240 -4.007210 0.000000 0.000000 0.000000 0.000000 0.000000 0.000000 -74.800003 0.000000 0.000000 9.125431 -7.598843 -2.726469 -6.320746 1.746516 0.413022 0.000000 0.000000 0.000000 83.600006 0.000000 0.000000 2.770036 0.116349 14.012100 12.832194 7.515890 0.455804 0.000000 0.000000 0.000000 0.000000 0.000000 0.000000 8.195504 0.781460 0.930233 0.000000 0.000000 0.000000 0.000000 0.000000 0.000000 -11.644512 2.760721 -2.794761 
0.000000 38.100002 0.000000 0.000000 0.000000 0.000000 -0.920928 -1.497272 1.052490 3.234412 -0.638850 7.299640 0.000000 0.000000 0.000000 0.407942 -0.012259 0.125621 4.790095 1.457380 -3.998490 0.000000 0.000000 0.000000 0.000000 0.000000 0.000000 -74.800003 0.000000 0.000000 8.597584 -7.716354 -4.922172 -4.281356 2.351367 0.271411 0.000000 0.000000 0.000000 83.600006 0.000000 0.000000 3.456544 -0.001165 14.945900 13.209469 13.282380 0.089536 0.000000 0.000000 0.000000 0.000000 0.000000 0.000000 22.279716 3.499624 -0.699431 0.000000 0.000000 0.000000 0.000000 0.000000 0.000000 4.287104 -0.005791 -1.855253 
0.000000 38.100002 0.000000 0.000000 0.000000 0.000000 -0.907500 -2.142024 1.066763 3.411768 -0.413939 6.538830 0.000000 0.000000 0.000000 0.042751 -0.359102 0.204164 4.601790 1.017530 -3.147050 0.000000 0.000000 0.000000 0.000000 0.000000 0.000000 -74.800003 0.000000 0.000000 7.417957 -7.716354 -6.570198 -2.964121 2.533740 0.088928 0.000000 0.000000 0.000000 83.600006 0.000000 0.000000 2.862748 -0.001165 15.668110 12.183719 15.557400 0.331903 0.000000 0.000000 0.000000 0.000000 0.000000 0.000000 24.688309 2.019926 4.264540 0.000000 0.000000 0.000000 0.000000 0.000000 0.000000 20.776360 -1.529196 3.034380 
0.000000 38.100002 0.000000 0.000000 0.000000 0.000000 -2.588980 -1.606370 0.847577 4.232220 -0.109319 4.063770 0.000000 0.000000 0.000000 -0.004632 -0.082528 0.092734 3.695360 0.754448 -1.973470 0.000000 0.000000 0.000000 0.000000 0.000000 0.000000 -74.800003 0.000000 0.000000 5.837723 -7.716354 -8.094870 -4.355410 1.223352 0.074780 0.000000 0.000000 0.000000 83.600006 0.000000 0.000000 1.201028 -0.001165 16.303009 10.842098 13.529000 0.285265 0.000000 0.000000 0.000000 0.000000 0.000000 0.000000 -1.231163 1.831893 6.845827 0.000000 0.000000 0.000000 0.000000 0.000000 0.000000 9.172863 -5.207838 3.084680 
0.000000 38.100002 0.000000 0.000000 0.000000 0.000000 -4.569364 -0.717793 0.479063 5.657620 0.720518 -0.458285 0.000000 0.000000 0.000000 -0.107271 0.166920 -0.020543 3.943000 0.396601 -0.249927 0.000000 0.000000 0.000000 0.000000 0.000000 0.000000 -74.800003 0.000000 0.000000 0.044014 -7.716354 -7.419671 -8.686354 -1.359260 -0.250100 0.000000 0.000000 0.000000 83.600006 0.000000 0.000000 -1.486974 -0.001165 16.206303 9.635085 8.660240 0.267681 0.000000 0.000000 0.000000 0.000000 0.000000 0.000000 -8.274943 0.771707 7.956114 0.000000 0.000000 0.000000 0.000000 0.000000 0.000000 6.482924 -9.345399 2.210355 
0.000000 38.100002 0.000000 0.000000 0.000000 0.000000 -4.714581 0.033945 0.001831 6.978283 0.949968 -3.168510 0.000000 0.000000 0.000000 -0.088913 0.029736 -0.069249 4.540220 0.260280 2.275510 0.000000 0.000000 0.000000 0.000000 0.000000 0.000000 -74.800003 0.000000 0.000000 -9.925821 -7.716354 -5.386566 -11.883558 -5.810566 0.228837 0.000000 0.000000 0.000000 83.600006 0.000000 0.000000 -6.955868 -0.001165 15.765602 8.494974 2.678356 0.247649 0.000000 0.000000 0.000000 0.000000 0.000000 0.000000 -6.252903 -1.350606 6.723120 0.000000 0.000000 0.000000 0.000000 0.000000 0.000000 8.343335 -4.624382 -0.687400 
0.000000 38.100002 0.000000 0.000000 0.000000 0.000000 -3.437904 0.393807 -0.396038 5.711505 0.990823 -5.642550 0.000000 0.000000 0.000000 -0.081509 -0.384691 -0.167481 4.107840 -0.611224 3.806190 0.000000 0.000000 0.000000 0.000000 0.000000 0.000000 -74.800003 0.000000 0.000000 -14.065550 -7.716354 -2.754354 -12.762356 -9.514564 0.139668 0.000000 0.000000 0.000000 83.600006 0.000000 0.000000 -11.887873 -0.001165 14.349232 7.987984 -0.941079 0.350273 0.000000 0.000000 0.000000 0.000000 0.000000 0.000000 -12.466013 -2.716281 4.674154 0.000000 0.000000 0.000000 0.000000 0.000000 0.000000 3.539016 -0.820705 -0.794870 
